{"title":"Drum [1976] Ken Norton .mp4.dvd.rip","uid":8976140,"size":1001862091,"categoryP":"video","categoryS":"movies_dvdr","magnet":"?xt=urn:btih:de9533bc812fb866e866850a9956406fecfaba47&amp;dn=Drum+%5B1976%5D+Ken+Norton+.mp4.dvd.rip&amp;tr=udp%3A%2F%2Ftracker.openbittorrent.com%3A80&amp;tr=udp%3A%2F%2Fopen.demonii.com%3A1337&amp;tr=udp%3A%2F%2Ftracker.coppersurfer.tk%3A6969&amp;tr=udp%3A%2F%2Fexodus.desync.com%3A6969","seeders":3,"leechers":1,"uploader":"CATRIX02","files":11,"time":1380446632,"description":"The white men                  The white woman \nwanted a stud to                   wanted much\n  breed slaves                           more....\n  \n  The yearis 1860 and the the town is New  Orleans. A handsome brothel slave named\n  Drum ( Ken Norton ) is bought by the scheming plantation owner, Hammnd Maxwell\n  ( Warren Oates ) for the sole purpose  of siring  beautiful slave children- Maxwell will\n  then sell the children for up to tree dollars each in the market. But others have designs\n  on the attractive ,powerful slave too,and many of them are women.\n  \n &lt;a href=&quot; http://s23.postimg.org/hgzu8cqbb/img001.jpg&quot; rel=&quot;nofollow&quot; target=&quot;_NEW&quot;&gt; http://s23.postimg.org/hgzu8cqbb/img001.jpg&lt;/a&gt;\n  \n &lt;a href=&quot; http://postimg.org/image/53qtmwk77/&quot; rel=&quot;nofollow&quot; target=&quot;_NEW&quot;&gt; http://postimg.org/image/53qtmwk77/&lt;/a&gt;\n &lt;a href=&quot; http://postimg.org/image/ongbdrd13/&quot; rel=&quot;nofollow&quot; target=&quot;_NEW&quot;&gt; http://postimg.org/image/ongbdrd13/&lt;/a&gt;\n &lt;a href=&quot; http://postimg.org/image/h3jqh3hil/&quot; rel=&quot;nofollow&quot; target=&quot;_NEW&quot;&gt; http://postimg.org/image/h3jqh3hil/&lt;/a&gt;\n &lt;a href=&quot; http://postimg.org/image/r2xhvaxy9/&quot; rel=&quot;nofollow&quot; target=&quot;_NEW&quot;&gt; http://postimg.org/image/r2xhvaxy9/&lt;/a&gt;\n &lt;a href=&quot; http://postimg.org/image/aago5vqnv/&quot; rel=&quot;nofollow&quot; target=&quot;_NEW&quot;&gt; http://postimg.org/image/aago5vqnv/&lt;/a&gt;\n &lt;a href=&quot; http://postimg.org/image/xmc2nnuct/&quot; rel=&quot;nofollow&quot; target=&quot;_NEW&quot;&gt; http://postimg.org/image/xmc2nnuct/&lt;/a&gt;   \n\n\n\n\nComplete name         :Drum [1976] Ken Norton .mp4.dvd.rip\nFormat                                   : MPEG-4\nFormat profile                           : Base Media\nCodec ID                                 : isom\nFile size                                : 954 MiB\nDuration                                 : 1h 40mn\nOverall bit rate                         : 1 332 Kbps\nMovie name                               : Drum\nGenre                                    : Slavery_Sequel_To_Mandingo\nWriting application                      : Lavf54.46.100\n\nID                                       : 1\nFormat                                   : MPEG-4 Visual\nFormat settings, BVOP                    : No\nFormat settings, QPel                    : No\nFormat settings, GMC                     : No warppoints\nFormat settings, Matrix                  : Default (H.263)\nCodec ID                                 : 20\nDuration                                 : 1h 40mn\nBit rate mode                            : Constant\nBit rate                                 : 1 199 Kbps\nWidth                                    : 720 pixels\nHeight                                   : 540 pixels\nDisplay aspect ratio                     : 4:3\nFrame rate mode                          : Constant\nFrame rate                               : 23.976 fps\nColor space                              : YUV\nChroma subsampling                       : 4:2:0\nBit depth                                : 8 bits\nScan type                                : Progressive\nCompression mode                         : Lossy\nBits/(Pixel*Frame)                       : 0.129\nStream size                              : 859 MiB (90%)\nWriting library                          : Lavc54.79.100\n\nID                                       : 2\nFormat                                   : AAC\nFormat/Info                              : Advanced Audio Codec\nFormat profile                           : LC\nCodec ID                                 : 40\nDuration                                 : 1h 40mn\nBit rate mode                            : Constant\nBit rate                                 : 128 Kbps\nChannel(s)                               : 2 channels\nChannel positions                        : Front: L R\nSampling rate                            : 44.1 KHz\nCompression mode                         : Lossy\nStream size                              : 91.6 MiB (10%)","torrent":{"xt":"urn:btih:de9533bc812fb866e866850a9956406fecfaba47","amp;dn":"Drum+%5B1976%5D+Ken+Norton+.mp4.dvd.rip","amp;tr":["udp%3A%2F%2Ftracker.openbittorrent.com%3A80","udp%3A%2F%2Fopen.demonii.com%3A1337","udp%3A%2F%2Ftracker.coppersurfer.tk%3A6969","udp%3A%2F%2Fexodus.desync.com%3A6969"],"infoHash":"de9533bc812fb866e866850a9956406fecfaba47","infoHashBuffer":{"type":"Buffer","data":[222,149,51,188,129,47,184,102,232,102,133,10,153,86,64,111,236,250,186,71]},"announce":[],"urlList":[]}}